<svg width="50" height="21" viewBox="0 0 50 21" fill="none" xmlns="http://www.w3.org/2000/svg">
<path d="M30.5057 17L30.7882 15.3369L35.2659 11.7388C35.6497 11.419 35.9748 11.1311 36.2413 10.8753C36.5114 10.6194 36.7246 10.3689 36.881 10.1237C37.0409 9.87491 37.1457 9.60661 37.1955 9.31877C37.2488 8.99894 37.2221 8.72353 37.1155 8.49254C37.0125 8.258 36.8455 8.07854 36.6145 7.95416C36.387 7.82623 36.1134 7.76226 35.7936 7.76226C35.4595 7.76226 35.1557 7.82978 34.8821 7.96482C34.6084 8.09986 34.381 8.29354 34.1998 8.54585C34.0185 8.79815 33.8977 9.09844 33.8373 9.4467H31.6465C31.7673 8.73241 32.0356 8.1123 32.4514 7.58636C32.8671 7.06042 33.3895 6.65352 34.0185 6.36567C34.6475 6.07783 35.344 5.93391 36.1081 5.93391C36.8899 5.93391 37.5473 6.0725 38.0804 6.34968C38.617 6.62332 39.0061 7.00356 39.2477 7.49041C39.4894 7.97726 39.5569 8.53518 39.4503 9.16418C39.3792 9.57996 39.2282 9.98863 38.9972 10.3902C38.7662 10.7882 38.4037 11.2324 37.9098 11.7228C37.4158 12.2097 36.7389 12.7942 35.8789 13.4765L34.0292 15.0384L34.0132 15.113H38.6027L38.2882 17H30.5057ZM39.8807 15.081L40.1792 13.2633L45.9308 6.08316H47.498L47.0822 8.59915H46.1494L42.5247 13.1461L42.514 13.2313H48.9852L48.6814 15.081H39.8807ZM44.8008 17L45.2165 14.5213L45.3925 13.7271L46.6558 6.08316H48.82L47.0076 17H44.8008Z" fill="black"/>
<path d="M1.34822 5.81237H2.94203V14.533C2.94203 15.0803 2.84253 15.5423 2.64353 15.919C2.44808 16.2957 2.15668 16.5817 1.76933 16.7772C1.38553 16.9726 0.911119 17.0704 0.346087 17.0704C0.289228 17.0704 0.235924 17.0704 0.186172 17.0704C0.132867 17.0704 0.0777857 17.0686 0.0209272 17.065V15.6951C0.0706784 15.6951 0.115099 15.6951 0.154189 15.6951C0.189726 15.6951 0.230593 15.6951 0.276791 15.6951C0.653478 15.6951 0.925333 15.5938 1.09236 15.3913C1.26293 15.1923 1.34822 14.9026 1.34822 14.5224V5.81237ZM2.13713 4.54904C1.85995 4.54904 1.62185 4.45665 1.42285 4.27186C1.22739 4.08351 1.12967 3.85963 1.12967 3.60022C1.12967 3.33725 1.22739 3.11337 1.42285 2.92857C1.62185 2.74023 1.85995 2.64606 2.13713 2.64606C2.41432 2.64606 2.65063 2.74023 2.84609 2.92857C3.04509 3.11337 3.14459 3.33725 3.14459 3.60022C3.14459 3.85963 3.04509 4.08351 2.84609 4.27186C2.65063 4.45665 2.41432 4.54904 2.13713 4.54904ZM10.2728 10.6045V5.81237H11.8719V14H10.3048V12.5821H10.2195C10.0311 13.0192 9.72908 13.3834 9.3133 13.6748C8.90108 13.9627 8.38757 14.1066 7.77279 14.1066C7.24685 14.1066 6.78132 13.9911 6.3762 13.7601C5.97464 13.5256 5.65836 13.1791 5.42737 12.7207C5.19994 12.2623 5.08622 11.6955 5.08622 11.0203V5.81237H6.68004V10.8284C6.68004 11.3863 6.83462 11.8305 7.14379 12.161C7.45296 12.4915 7.85452 12.6567 8.34848 12.6567C8.64699 12.6567 8.94372 12.5821 9.23867 12.4328C9.53718 12.2836 9.78416 12.0579 9.97961 11.7559C10.1786 11.4538 10.2763 11.07 10.2728 10.6045ZM15.6073 9.13859V14H14.0135V5.81237H15.5433V7.14499H15.6446C15.8329 6.71145 16.1279 6.36319 16.5294 6.10022C16.9346 5.83725 17.4445 5.70576 18.0593 5.70576C18.6172 5.70576 19.1059 5.82303 19.5252 6.05757C19.9445 6.28856 20.2697 6.63326 20.5007 7.09169C20.7317 7.55011 20.8471 8.11692 20.8471 8.79211V14H19.2533V8.98401C19.2533 8.39055 19.0987 7.9268 18.7896 7.59275C18.4804 7.25516 18.0557 7.08636 17.5156 7.08636C17.146 7.08636 16.8173 7.16631 16.5294 7.32623C16.2452 7.48614 16.0195 7.72068 15.8525 8.02985C15.689 8.33547 15.6073 8.70505 15.6073 9.13859ZM26.5135 14.1652C25.7068 14.1652 25.012 13.9929 24.4292 13.6482C23.85 13.2999 23.4022 12.8113 23.086 12.1823C22.7732 11.5498 22.6169 10.8088 22.6169 9.95949C22.6169 9.12083 22.7732 8.38166 23.086 7.74201C23.4022 7.10235 23.8429 6.60306 24.4079 6.24414C24.9765 5.88522 25.641 5.70576 26.4015 5.70576C26.8635 5.70576 27.3113 5.78216 27.7448 5.93497C28.1783 6.08778 28.5675 6.32765 28.9122 6.65459C29.2569 6.98152 29.5287 7.40619 29.7277 7.92857C29.9267 8.44741 30.0262 9.07818 30.0262 9.8209V10.3859H23.5177V9.1919H28.4644C28.4644 8.77257 28.3791 8.40121 28.2086 8.07783C28.038 7.75089 27.7981 7.49325 27.4889 7.30491C27.1833 7.11656 26.8244 7.02239 26.4122 7.02239C25.9644 7.02239 25.5735 7.13255 25.2395 7.35288C24.909 7.56965 24.6531 7.85395 24.4719 8.20576C24.2942 8.55402 24.2054 8.93248 24.2054 9.34115V10.274C24.2054 10.8213 24.3013 11.2868 24.4932 11.6706C24.6887 12.0544 24.9605 12.3475 25.3088 12.5501C25.657 12.7491 26.0639 12.8486 26.5294 12.8486C26.8315 12.8486 27.1069 12.806 27.3557 12.7207C27.6044 12.6318 27.8194 12.5004 28.0007 12.3262C28.1819 12.1521 28.3205 11.9371 28.4164 11.6812L29.925 11.9531C29.8041 12.3973 29.5874 12.7864 29.2746 13.1205C28.9655 13.451 28.5764 13.7086 28.1073 13.8934C27.6417 14.0746 27.1105 14.1652 26.5135 14.1652Z" fill="black"/>
</svg>
